<svg class="diagram" width="1000" height="464.2" viewBox="0 0 1000 464.2" xmlns="http://www.w3.org/2000/svg" xmlns:xlink="http://www.w3.org/1999/xlink">
<!-- Phone and servers -->
<g transform="translate(250, 20)">
<g transform="scale(1.5), translate(0, 30)">
    <path fill="#010101" d="M64.8 0H13.5C6.1 0 0 6.1 0 13.5v105.3c0 7.4 6.1 13.5 13.5 13.5h51.3c7.4 0 13.5-6.1 13.5-13.5V13.5C78.3 6.1 72.2 0 64.8 0zM38.7 125.1c-3.6 0-6.7-3-6.7-6.7 0-3.6 3-6.7 6.7-6.7 3.8 0 6.7 3 6.7 6.7s-3 6.7-6.7 6.7zm28.8-18.5H10.8V17.5h56.7v89.1zM434.1 47H311.4c-3.4 0-6.2 2.8-6.2 6.2v26.9c0 3.4 2.8 6.2 6.2 6.2h122.8c3.4 0 6.2-2.8 6.2-6.2V53.2c-.1-3.4-2.8-6.2-6.3-6.2zm-37.8 25.6H319v-12h77.3v12zm27.8-.4c-3.1 0-5.6-2.5-5.6-5.6s2.5-5.6 5.6-5.6c3.1 0 5.6 2.5 5.6 5.6s-2.5 5.6-5.6 5.6zm10 19.8H311.4c-3.4 0-6.2 2.8-6.2 6.2v26.9c0 3.4 2.8 6.2 6.2 6.2h122.8c3.4 0 6.2-2.8 6.2-6.2V98.2c-.1-3.4-2.8-6.2-6.3-6.2zm-37.8 25.6H319v-12h77.3v12zm27.8-.4c-3.1 0-5.6-2.5-5.6-5.6 0-3.1 2.5-5.6 5.6-5.6 3.1 0 5.6 2.5 5.6 5.6 0 3.1-2.5 5.6-5.6 5.6zM434.1 1H311.4c-3.4 0-6.2 2.8-6.2 6.2v26.9c0 3.4 2.8 6.2 6.2 6.2h122.8c3.4 0 6.2-2.8 6.2-6.2V7.2c-.1-3.4-2.8-6.2-6.3-6.2zm-37.8 25.6H319v-12h77.3v12zm27.8-.4c-3.1 0-5.6-2.5-5.6-5.6s2.5-5.6 5.6-5.6c3.1 0 5.6 2.5 5.6 5.6s-2.5 5.6-5.6 5.6z"/>
</g>

<text x="180" y="15" font-size="20px">DNS request - example.com?</text>
<g transform="translate(150, 25)">
    <g id="right" stroke="#CE561E" stroke-width="4">
        <line x1="0" y1="0" x2="260" y2="0"></line>
        <g stroke-width="2">
            <line x1="240" y1="10" x2="262" y2="0"></line>
            <line x1="240" y1="-10" x2="262" y2="0"></line>
        </g>
    </g>
</g>
<g transform="translate(0, 30)">
    <text x="180" y="25" font-size="20px">DNS reply</text>
    <text x="180" y="40" font-size="10px">93.184.216.34 or 2606:2800:220:1:248:1893:25c8:1946</text>
    <g transform="translate(150, 50)">
        <g id="left" stroke="#CE561E" stroke-width="4">
            <line x1="0" y1="0" x2="260" y2="0"></line>
            <g stroke-width="2">
                <line x1="-2" y1="0" x2="20" y2="10"></line>
                <line x1="-2" y1="0" x2="20" y2="-10"></line>
            </g>
        </g>
    </g>
    <text x="180" y="90" font-size="20px">TCP SYN</text>
    <text x="180" y="120" font-size="20px">TCP SYN+ACK</text>
    <g transform="translate(150, 10)">
        <g id="rtt" stroke="#CE561E" stroke-width="4">
            <use x="0" y="85" xlink:href="#right" />
            <use x="0" y="115" xlink:href="#left" />
        </g>
    </g>
    <text x="180" y="160" font-size="20px">ACK + Client Hello</text>
    <text x="180" y="190" font-size="20px">Server Hello + Certificate</text>
    <g transform="translate(150, 85)">
        <use xlink:href="#rtt" />
    </g>
    <text x="180" y="230" font-size="20px">ClientKeyExchange</text>
    <text x="180" y="260" font-size="20px">Server Finished</text>
    <g transform="translate(150, 150)">
        <use xlink:href="#rtt" />
    </g>
    <text x="180" y="300" font-size="20px">HTTP GET request</text>
    <g transform="translate(150, 40)">
        <g id="rtt" stroke="#CE561E" stroke-width="4">
            <use x="0" y="275" xlink:href="#right" />
        </g>
    </g>
</g>

</g>
</svg>
