<svg class="diagram" width="145" height="135" xmlns="http://www.w3.org/2000/svg" xmlns:xlink="http://www.w3.org/1999/xlink">
<g transform="translate(-300, 0)">
    <path fill="#010101" d="M434.1 47H311.4c-3.4 0-6.2 2.8-6.2 6.2v26.9c0 3.4 2.8 6.2 6.2 6.2h122.8c3.4 0 6.2-2.8 6.2-6.2V53.2c-.1-3.4-2.8-6.2-6.3-6.2zm-37.8 25.6H319v-12h77.3v12zm27.8-.4c-3.1 0-5.6-2.5-5.6-5.6s2.5-5.6 5.6-5.6c3.1 0 5.6 2.5 5.6 5.6s-2.5 5.6-5.6 5.6zm10 19.8H311.4c-3.4 0-6.2 2.8-6.2 6.2v26.9c0 3.4 2.8 6.2 6.2 6.2h122.8c3.4 0 6.2-2.8 6.2-6.2V98.2c-.1-3.4-2.8-6.2-6.3-6.2zm-37.8 25.6H319v-12h77.3v12zm27.8-.4c-3.1 0-5.6-2.5-5.6-5.6 0-3.1 2.5-5.6 5.6-5.6 3.1 0 5.6 2.5 5.6 5.6 0 3.1-2.5 5.6-5.6 5.6zM434.1 1H311.4c-3.4 0-6.2 2.8-6.2 6.2v26.9c0 3.4 2.8 6.2 6.2 6.2h122.8c3.4 0 6.2-2.8 6.2-6.2V7.2c-.1-3.4-2.8-6.2-6.3-6.2zm-37.8 25.6H319v-12h77.3v12zm27.8-.4c-3.1 0-5.6-2.5-5.6-5.6s2.5-5.6 5.6-5.6c3.1 0 5.6 2.5 5.6 5.6s-2.5 5.6-5.6 5.6z"/>
</g>
</svg>
