<svg class="diagram" width="860" height="600" viewBox="0 0 860 600" xmlns="http://www.w3.org/2000/svg" xmlns:xlink="http://www.w3.org/1999/xlink">
<g transform="scale(0.8), translate(300, 0)">
<g>
<rect id="box" x="320" y="10" width="200" height="100" rx="15" ry="15" stroke="black" style="fill: white; border: 4px solid black;"/>
<text x="340" y="75" font-size="55">HTML</text>
</g>

<g id="css" transform="translate(-250, 200)">
<use xlink:href="#box"/>
<text x="340" y="75" font-size="55" transform="translate(30, 0)">CSS</text>
</g>

<g id="js" transform="translate(0, 200)">
<use xlink:href="#box"/>
<text x="340" y="75" font-size="55" transform="translate(50, 0)">JS</text>
</g>

<g id="img" transform="translate(250, 200)">
<use xlink:href="#box"/>
<text x="340" y="75" font-size="55" transform="translate(30, 0)">IMG</text>
</g>

<defs>
<g id="rightarrow" stroke="#fff" stroke-width="4">
    <line x1="0" y1="0" x2="100" y2="100"></line>
    <g stroke-width="2">
        <line x1="98" y1="85" x2="100" y2="100"></line>
        <line x1="85" y1="98" x2="100" y2="100"></line>
    </g>
</g>
<g id="leftarrow" stroke="#fff" stroke-width="4">
    <line x1="0" y1="100" x2="100" y2="0"></line>
    <g stroke-width="2">
        <line x1="2" y1="85" x2="0" y2="100"></line>
        <line x1="15" y1="98" x2="0" y2="100"></line>
    </g>
</g>
<g id="straightarrow" stroke="#fff" stroke-width="4">
    <line x1="0" y1="0" x2="0" y2="100"></line>
    <g stroke-width="2">
        <line x1="12" y1="85" x2="0" y2="100"></line>
        <line x1="-12" y1="85" x2="0" y2="100"></line>
    </g>
</g>
</defs>

<use xlink:href="#rightarrow" transform="translate(480, 110)"/>
<use xlink:href="#leftarrow" transform="translate(260, 110)"/>
<use xlink:href="#straightarrow" transform="translate(420, 110)"/>

<use xlink:href="#css" transform="translate(0, 200)" />
<use xlink:href="#js" transform="translate(0, 200)" />
<use xlink:href="#straightarrow" transform="translate(170, 310)"/>
<use xlink:href="#straightarrow" transform="translate(420, 310)"/>

<use xlink:href="#img" transform="translate(-500, 400)" />
<use xlink:href="#img" transform="translate(-250, 400)" />
<use xlink:href="#straightarrow" transform="translate(170, 510)"/>
<use xlink:href="#straightarrow" transform="translate(420, 510)"/>

<g id="font" transform="translate(-500, 600)">
<use xlink:href="#box"/>
<text x="340" y="75" font-size="55" transform="translate(10, 0)">FONT</text>
</g>
<use xlink:href="#leftarrow" transform="translate(10, 509)"/>
</g>

</svg>
